<?xml version="1.0" encoding="UTF-8" standalone="no"?>
<!DOCTYPE svg PUBLIC "-//W3C//DTD SVG 1.1//EN" "http://www.w3.org/Graphics/SVG/1.1/DTD/svg11.dtd">
<svg width="100%" height="100%" viewBox="0 0 180 180" version="1.1" xmlns="http://www.w3.org/2000/svg" xmlns:xlink="http://www.w3.org/1999/xlink" xml:space="preserve" xmlns:serif="http://www.serif.com/" style="fill-rule:evenodd;clip-rule:evenodd;stroke-miterlimit:10;">
    <g id="Layer-1" serif:id="Layer 1">
        <path id="Kształt-9" serif:id="Kształt 9" d="M67.5,108.88L72.3,108.92" style="fill:none;stroke:rgb(192,192,192);stroke-width:3px;"/>
        <path id="G" d="M50.6,112.7L50.6,104.4C50.6,103.4 50.867,102.5 51.4,101.7C51.867,100.9 52.533,100.267 53.4,99.8C54.267,99.333 55.2,99.1 56.2,99.1L65.2,99.1L65.2,101.9L56.2,101.9C55.467,101.9 54.8,102.133 54.2,102.6C53.667,103.067 53.4,103.667 53.4,104.4L53.4,112.7C53.4,113.367 53.667,113.967 54.2,114.5C54.8,114.967 55.467,115.2 56.2,115.2L60.7,115.2C61.5,115.2 62.167,114.967 62.7,114.5C63.233,113.967 63.5,113.367 63.5,112.7L63.5,110.2L58.4,110.2L58.4,107.4L66.3,107.4L66.3,112.7C66.3,113.633 66.067,114.5 65.6,115.3C65.067,116.167 64.367,116.833 63.5,117.3C62.633,117.767 61.7,118 60.7,118L56.2,118C55.2,118 54.267,117.767 53.4,117.3C52.533,116.833 51.867,116.167 51.4,115.3C50.867,114.5 50.6,113.633 50.6,112.7Z" style="fill:rgb(192,192,192);fill-rule:nonzero;"/>
        <path id="WAT" d="M76.9,117L71.1,99.8L74.2,99.8L78.8,115.2L78.1,115.2L82.7,99.8L85.5,99.8L90.2,115.2L89.4,115.2L94,99.8L97,99.8L91.2,117L88.2,117L83.7,102.2L84.4,102.2L79.8,117L76.9,117ZM96.1,117L103.7,99.8L106.6,99.8L114.1,117L111.1,117L105.1,102.7L99.1,117L96.1,117ZM99.9,113L99.9,110.6L110.2,110.6L110.2,113L99.9,113ZM112.3,102.3L112.3,99.8L126,99.8L126,102.3L120.6,102.3L120.6,117L117.7,117L117.7,102.3L112.3,102.3Z" style="fill:rgb(211,84,0);fill-rule:nonzero;"/>
        <path d="M89.587,90.198C89.709,90.227 89.835,90.231 89.959,90.211C99.644,88.571 107,80.158 107,70C107,58.663 97.837,49.5 86.5,49.5C75.163,49.5 66,58.663 66,70C66,79.709 72.72,87.823 81.77,89.954C82.207,90.051 82.52,90.437 82.524,90.885L82.528,90.885C82.531,91.199 82.391,91.497 82.147,91.695C81.904,91.893 81.583,91.968 81.277,91.901C71.36,89.544 64,80.645 64,70C64,57.557 74.057,47.5 86.5,47.5C98.943,47.5 109,57.557 109,70C109,81.432 100.511,90.85 89.482,92.305C88.951,92.369 87.433,91.939 86.832,91.413C85.214,90.159 85.233,88.658 85.239,88.495C85.24,88.491 85.24,88.486 85.24,88.481C85.24,88.47 85.24,78.9 85.24,78.9L87.24,78.9C87.24,78.9 87.24,88.447 87.24,88.467C87.24,88.527 87.246,88.588 87.257,88.647C87.353,88.867 87.554,89.245 88.063,89.586C88.428,89.83 88.923,90.044 89.587,90.198Z" style="fill:rgb(211,84,0);"/>
        <path d="M88.5,71.6C88.5,71.6 89.2,71.5 89.2,72L89.2,74.5L89.4,74.5L89.4,78.6C89.4,78.6 89.4,79.1 88.6,79.1L83.3,79.1C83.3,79.1 82.6,79.2 82.6,78.7L82.6,74.5L82.8,74.5L82.8,72C82.8,72 82.7,71.6 83.5,71.6L83.5,70L83.1,69.7L83.9,69L83.9,71.6L84.4,71.6L84.4,70.4L84.8,70.4L84.8,66.1L87.2,66.1L87.2,70.4L87.6,70.4L87.6,71.6L88.1,71.6" style="fill:rgb(211,84,0);fill-rule:nonzero;stroke:rgb(211,84,0);stroke-width:0.4px;"/>
        <path d="M88.5,71.6L88.5,70L88.9,69.7L88.1,69L88.1,71.6" style="fill:rgb(211,84,0);fill-rule:nonzero;stroke:rgb(211,84,0);stroke-width:0.4px;"/>
        <path d="M83.1,64.4L83.1,62.7L84.2,62.7L84.2,61.6L83.1,61.6L83.1,51.9C83.1,51.9 83.1,51.5 83.6,51.5L88.3,51.5C88.3,51.5 88.9,51.5 88.9,52L88.9,61.6L87.8,61.6L87.8,62.7L88.9,62.7L88.9,64.4L83.1,64.4Z" style="fill:rgb(211,84,0);fill-rule:nonzero;stroke:rgb(211,84,0);stroke-width:0.4px;"/>
    </g>
</svg>
