<?xml version="1.0" encoding="utf-8"?>
<!-- Generator: Adobe Illustrator 19.2.1, SVG Export Plug-In . SVG Version: 6.00 Build 0)  -->
<svg version="1.1" id="layer" xmlns="http://www.w3.org/2000/svg" xmlns:xlink="http://www.w3.org/1999/xlink" x="0px" y="0px"
	 viewBox="0 0 652 652" style="enable-background:new 0 0 652 652;" xml:space="preserve">
<style type="text/css">
	.st0{fill:#E60012;}
</style>
<path class="st0" d="M617.3,370.6h-32.8c-20.5,0-37.1-16.7-37.1-37.1v-14.3c0-20.5,16.7-37.1,37.1-37.1h32.8
	c5.2,0.2,9.2,4.5,9.1,9.6c-0.2,4.9-4.1,8.9-9.1,9.1h-32.8c-10.2,0-18.5,8.3-18.5,18.5l0,0v14.3c0,10.2,8.3,18.5,18.5,18.5l0,0h32.8
	c5.2,0.2,9.2,4.5,9.1,9.6C626.3,366.4,622.3,370.4,617.3,370.6 M388.5,281.8l-48.9,0.1V370h0.6l0,0h48.2c20.4,0,36.9-16.6,37-37
	v-14.2C425.5,298.4,408.9,281.8,388.5,281.8 M406.9,333c0,10.2-8.2,18.4-18.4,18.4h-30.2v-51h30.2c10.2,0,18.4,8.2,18.4,18.4V333z
	 M67.7,326.3L67.7,326.3c0.1,5.1,4.1,9.1,9.2,9.1h21v15.9H63.5c-10.1,0-18.3-8.2-18.3-18.3v-14.2c0-10.1,8.2-18.3,18.3-18.3l0,0
	h43.3c5.1,0,9.2-4.1,9.2-9.3c0-5.1-4.1-9.2-9.2-9.2H63.5c-20.3,0-36.8,16.5-36.8,36.8V333c0,20.3,16.5,36.8,36.8,36.8h52.9v-44.7
	c0-4.5-3.7-8.2-8.2-8.2H76.9c-5.1,0-9.2,4.1-9.2,9.2C67.7,326.2,67.7,326.3,67.7,326.3 M192.6,369.9h-35.8
	c-16.3,0-29.4-13.2-29.4-29.4v-29.2c0-16.3,13.2-29.4,29.4-29.4h35.8c16.3,0,29.4,13.2,29.4,29.4v29.2
	C222,356.7,208.8,369.9,192.6,369.9 M156.8,298.9c-6.9,0-12.4,5.6-12.4,12.4v29.2c0,6.9,5.6,12.4,12.4,12.4h35.8
	c6.9,0,12.4-5.6,12.4-12.4v-29.2c0-6.9-5.6-12.4-12.4-12.4C192.6,298.9,156.8,298.9,156.8,298.9z M297.3,369.9h-35.8
	c-16.3,0-29.4-13.2-29.4-29.4v-29.2c0-16.3,13.2-29.4,29.4-29.4h35.8c16.3,0,29.4,13.2,29.4,29.4v29.2
	C326.7,356.7,313.6,369.9,297.3,369.9 M261.5,298.9c-6.9,0-12.4,5.6-12.4,12.4v29.2c0,6.9,5.6,12.4,12.4,12.4h35.8
	c6.9,0,12.4-5.6,12.4-12.4v-29.2c0-6.9-5.6-12.4-12.4-12.4C297.3,298.9,261.5,298.9,261.5,298.9z M448,281.4h-0.4
	c-4.8,0-8.6,3.8-8.6,8.6v71.5c0,4.8,3.8,8.6,8.6,8.6h0.4c4.8,0,8.6-3.8,8.6-8.6V290C456.7,285.3,452.7,281.4,448,281.4 M523.5,281.4
	h0.3c4.8,0,8.6,3.8,8.6,8.6v71.5c0,4.8-3.8,8.6-8.6,8.6h-0.3c-4.8,0-8.6-3.8-8.6-8.6V290C514.9,285.3,518.8,281.4,523.5,281.4"/>
<path class="st0" d="M617.3,334.8h-52.6c-5.2,0-9.3-4.1-9.3-9.3s4.1-9.3,9.3-9.3l0,0h52.6c5.2,0,9.3,4.1,9.3,9.3
	C626.7,330.6,622.5,334.8,617.3,334.8 M482.5,325.5c-3.5-3.4-9.1-3.2-12.4,0.3l-28.5,29.6c-3.4,3.5-3.2,9.1,0.3,12.4
	c1.7,1.6,4,2.5,6.3,2.4c0.3,0,0.7,0,1-0.1c2-0.2,3.8-1.2,5.2-2.7l28.5-29.6C486.2,334.4,486.1,328.8,482.5,325.5 M489,325.5
	c3.5-3.4,9.1-3.2,12.4,0.3l28.5,29.6c3.4,3.5,3.2,9.1-0.3,12.4c-1.7,1.6-4,2.5-6.3,2.4c-0.3,0-0.7,0-1-0.1c-2-0.2-3.8-1.2-5.2-2.7
	l-28.5-29.6C485.3,334.4,485.5,328.8,489,325.5"/>
</svg>
